# xmcd
# 
# Track frame offsets:
#     182
#     12195
#     26082
#     36570
#     62377
#     78645
#     93250
#     107117
#     116250
#     133555
#     143222
#     156470
# 
# Disc length: 2336
# 
# Revision: 2
# Processed by: cddbd v1.5.2PL0 Copyright (c) Steve Scherf et al.
# Submitted via: fre:ac v1.0.17
# 
DISCID=9c091e0c
DTITLE=Various Artist - Dance movies cd 1
DYEAR=0
DGENRE=
TTITLE0=Chuck berry - You never can tell
TTITLE1=Rick derringer - Hang on sloopy
TTITLE2=The commitments - in the midnight hour
TTITLE3=Bonnie tyler - Holding out for a hero
TTITLE4=Mn8 - I've got little something for you
TTITLE5=Jack radics - It's in her kiss
TTITLE6=Jimmy cliff - I can see clearly now
TTITLE7=Cyndi lauper - Iko iko
TTITLE8=Gloria estefan - turn the beat around
TTITLE9=Bill haley - Rock around the clock
TTITLE10=Roy robinson - Oh pretty woman
TTITLE11=Ini kamoze - Here comes the hotstepper
EXTD=
EXTT0=
EXTT1=
EXTT2=
EXTT3=
EXTT4=
EXTT5=
EXTT6=
EXTT7=
EXTT8=
EXTT9=
EXTT10=
EXTT11=
PLAYORDER=
